<svg width="165" height="70" viewBox="0 0 165 70" fill="none" xmlns="http://www.w3.org/2000/svg">
<g filter="url(#filter0_dd_43_726)">
<rect x="15" y="15" width="135" height="40" rx="20" fill="url(#paint0_linear_43_726)"/>
<path d="M42.5029 31.626C41.7054 31.626 41.0879 31.9268 40.6504 32.5283C40.2129 33.1253 39.9941 33.9593 39.9941 35.0303C39.9941 37.2588 40.8304 38.373 42.5029 38.373C43.2048 38.373 44.0547 38.1976 45.0527 37.8467V39.624C44.2324 39.9658 43.3164 40.1367 42.3047 40.1367C40.8509 40.1367 39.7389 39.6969 38.9688 38.8174C38.1986 37.9333 37.8135 36.6663 37.8135 35.0166C37.8135 33.9775 38.0026 33.0684 38.3809 32.2891C38.7591 31.5052 39.3014 30.9059 40.0078 30.4912C40.7188 30.0719 41.5505 29.8623 42.5029 29.8623C43.4736 29.8623 44.4489 30.097 45.4287 30.5664L44.7451 32.2891C44.3714 32.1113 43.9954 31.9564 43.6172 31.8242C43.2389 31.6921 42.8675 31.626 42.5029 31.626ZM56.2568 34.9893C56.2568 36.6436 55.8467 37.915 55.0264 38.8037C54.2061 39.6924 53.0303 40.1367 51.499 40.1367C49.9678 40.1367 48.792 39.6924 47.9717 38.8037C47.1514 37.915 46.7412 36.639 46.7412 34.9756C46.7412 33.3122 47.1514 32.043 47.9717 31.168C48.7965 30.2884 49.9769 29.8486 51.5127 29.8486C53.0485 29.8486 54.222 30.2907 55.0332 31.1748C55.849 32.0589 56.2568 33.3304 56.2568 34.9893ZM48.9629 34.9893C48.9629 36.1058 49.1748 36.9466 49.5986 37.5117C50.0225 38.0768 50.6559 38.3594 51.499 38.3594C53.1898 38.3594 54.0352 37.236 54.0352 34.9893C54.0352 32.738 53.1943 31.6123 51.5127 31.6123C50.6696 31.6123 50.0339 31.8971 49.6055 32.4668C49.1771 33.0319 48.9629 33.8727 48.9629 34.9893ZM67.1943 40H64.501L60.1533 32.4395H60.0918C60.1784 33.7747 60.2217 34.7272 60.2217 35.2969V40H58.3281V30.0059H61.001L65.3418 37.4912H65.3896C65.3213 36.1924 65.2871 35.2741 65.2871 34.7363V30.0059H67.1943V40ZM73.5723 40H71.4531V31.7695H68.7393V30.0059H76.2861V31.7695H73.5723V40ZM83.9424 40L83.2178 37.6211H79.5742L78.8496 40H76.5664L80.0938 29.9648H82.6846L86.2256 40H83.9424ZM82.7119 35.8438C82.042 33.6882 81.6637 32.4691 81.5771 32.1865C81.4951 31.904 81.4359 31.6807 81.3994 31.5166C81.249 32.0999 80.8184 33.5423 80.1074 35.8438H82.7119ZM91.7354 31.626C90.9378 31.626 90.3203 31.9268 89.8828 32.5283C89.4453 33.1253 89.2266 33.9593 89.2266 35.0303C89.2266 37.2588 90.0628 38.373 91.7354 38.373C92.4372 38.373 93.2871 38.1976 94.2852 37.8467V39.624C93.4648 39.9658 92.5488 40.1367 91.5371 40.1367C90.0833 40.1367 88.9714 39.6969 88.2012 38.8174C87.431 37.9333 87.0459 36.6663 87.0459 35.0166C87.0459 33.9775 87.235 33.0684 87.6133 32.2891C87.9915 31.5052 88.5339 30.9059 89.2402 30.4912C89.9512 30.0719 90.7829 29.8623 91.7354 29.8623C92.7061 29.8623 93.6813 30.097 94.6611 30.5664L93.9775 32.2891C93.6038 32.1113 93.2279 31.9564 92.8496 31.8242C92.4714 31.6921 92.0999 31.626 91.7354 31.626ZM100.273 40H98.1543V31.7695H95.4404V30.0059H102.987V31.7695H100.273V40ZM116.297 30.0059V36.4727C116.297 37.2109 116.131 37.8581 115.798 38.4141C115.47 38.9701 114.993 39.3962 114.369 39.6924C113.745 39.9886 113.007 40.1367 112.154 40.1367C110.869 40.1367 109.871 39.8086 109.16 39.1523C108.449 38.4915 108.094 37.5892 108.094 36.4453V30.0059H110.206V36.124C110.206 36.8942 110.361 37.4593 110.671 37.8193C110.981 38.1794 111.493 38.3594 112.209 38.3594C112.902 38.3594 113.403 38.1794 113.713 37.8193C114.027 37.4548 114.185 36.8851 114.185 36.1104V30.0059H116.297ZM124.644 37.2246C124.644 38.127 124.318 38.8379 123.666 39.3574C123.019 39.877 122.117 40.1367 120.959 40.1367C119.893 40.1367 118.949 39.9362 118.129 39.5352V37.5664C118.803 37.8672 119.373 38.0791 119.838 38.2021C120.307 38.3252 120.736 38.3867 121.123 38.3867C121.588 38.3867 121.943 38.2979 122.189 38.1201C122.44 37.9424 122.565 37.6781 122.565 37.3271C122.565 37.1312 122.511 36.958 122.401 36.8076C122.292 36.6527 122.13 36.5046 121.916 36.3633C121.706 36.222 121.276 35.9964 120.624 35.6865C120.013 35.3994 119.555 35.1237 119.25 34.8594C118.945 34.5951 118.701 34.2874 118.519 33.9365C118.336 33.5856 118.245 33.1755 118.245 32.7061C118.245 31.8219 118.544 31.127 119.141 30.6211C119.742 30.1152 120.572 29.8623 121.629 29.8623C122.148 29.8623 122.643 29.9238 123.112 30.0469C123.586 30.1699 124.081 30.3431 124.596 30.5664L123.912 32.2139C123.379 31.9951 122.937 31.8424 122.586 31.7559C122.24 31.6693 121.898 31.626 121.561 31.626C121.16 31.626 120.852 31.7194 120.638 31.9062C120.424 32.0931 120.316 32.3369 120.316 32.6377C120.316 32.8245 120.36 32.9886 120.446 33.1299C120.533 33.2666 120.67 33.401 120.856 33.5332C121.048 33.6608 121.497 33.8932 122.203 34.2305C123.137 34.6771 123.778 35.126 124.124 35.5771C124.47 36.0238 124.644 36.5729 124.644 37.2246Z" fill="white"/>
</g>
<defs>
<filter id="filter0_dd_43_726" x="0" y="0" width="165" height="70" filterUnits="userSpaceOnUse" color-interpolation-filters="sRGB">
<feFlood flood-opacity="0" result="BackgroundImageFix"/>
<feColorMatrix in="SourceAlpha" type="matrix" values="0 0 0 0 0 0 0 0 0 0 0 0 0 0 0 0 0 0 127 0" result="hardAlpha"/>
<feOffset dx="-5" dy="-5"/>
<feGaussianBlur stdDeviation="5"/>
<feColorMatrix type="matrix" values="0 0 0 0 1 0 0 0 0 1 0 0 0 0 1 0 0 0 1 0"/>
<feBlend mode="normal" in2="BackgroundImageFix" result="effect1_dropShadow_43_726"/>
<feColorMatrix in="SourceAlpha" type="matrix" values="0 0 0 0 0 0 0 0 0 0 0 0 0 0 0 0 0 0 127 0" result="hardAlpha"/>
<feOffset dx="5" dy="5"/>
<feGaussianBlur stdDeviation="5"/>
<feColorMatrix type="matrix" values="0 0 0 0 0.666667 0 0 0 0 0.666667 0 0 0 0 0.8 0 0 0 0.5 0"/>
<feBlend mode="normal" in2="effect1_dropShadow_43_726" result="effect2_dropShadow_43_726"/>
<feBlend mode="normal" in="SourceGraphic" in2="effect2_dropShadow_43_726" result="shape"/>
</filter>
<linearGradient id="paint0_linear_43_726" x1="82.5" y1="15" x2="82.5" y2="55" gradientUnits="userSpaceOnUse">
<stop stop-color="#EB3F57"/>
<stop offset="1" stop-color="#893944"/>
</linearGradient>
</defs>
</svg>
